# OBJ file
o object1
g object1
v -11.71426903 3.53262750 -1.45556168
v -10.86699097 4.26025657 1.54454795
v -10.61124940 4.74583693 -1.45556168
v -9.34925597 4.42510589 1.54454795
v -9.44907259 5.72593415 -1.45556168
v -8.58948335 4.59017679 1.54454795
v -8.81734889 6.11808471 -1.45556168
v -7.13242776 5.05038601 1.54454795
v -7.87825537 4.79300215 1.54454795
v -8.19484890 6.40319152 -1.45556168
v -7.84851189 6.51779663 -1.45556168
v -4.98440022 5.91125724 1.54454795
v -5.69049458 5.62942865 1.54454795
v -6.43204616 5.32389012 1.54454795
v -6.81445221 6.67490816 -1.45556168
v -6.07199758 6.62375134 -1.45556168
v -3.53428541 6.32769304 1.54454795
v -4.25262569 6.16094207 1.54454795
v -5.32091613 6.44435520 -1.45556168
v -3.83014549 5.78041159 -1.45556168
v -2.14472325 6.34482238 1.54454795
v -2.39602026 4.93244700 -1.45556168
v -0.84358152 6.06651115 1.54454795
v -0.97950181 4.08014339 -1.45556168
v 0.40875904 5.63935049 1.54454795
v 0.47172475 3.35493400 -1.45556168
v 1.65842961 5.15598245 1.54454795
v 1.98569642 2.84527082 -1.45556168
v 2.93004652 4.66927100 1.54454795
v 2.78883004 2.69250217 -1.45556168
v 4.23039094 4.22227438 1.54454795
v 3.56829489 2.63645438 -1.45556168
v 4.40263746 2.69728245 -1.45556168
v 5.55369547 3.91311495 1.54454795
v 4.90872002 4.03627030 1.54454795
v 5.19487892 2.89853099 -1.45556168
v 5.98819595 3.27642067 -1.45556168
v 6.82758498 3.89842678 1.54454795
v 6.20594309 3.86492838 1.54454795
v 6.73364575 3.79323428 -1.45556168
v 8.11498222 5.02649398 -1.45556168
v 8.00480867 4.14832965 1.54454795
v 9.44883974 6.21096765 -1.45556168
v 8.58358769 4.33516633 1.54454795
v 10.14217627 6.67427089 -1.45556168
v 9.79003513 4.76704495 1.54454795
v 9.17209090 4.54547197 1.54454795
v 10.86855054 6.98075284 -1.45556168
v 11.22803650 7.05677833 -1.45556168
v 11.85421226 5.31083715 1.54454795
v 11.11904519 5.16338986 1.54454795
v 10.44706494 4.98156852 1.54454795
v 12.38849814 6.95506058 -1.45556168
v 13.09553439 6.64781373 -1.45556168
v 13.25091105 5.44295677 1.54454795
v 12.52215401 5.39733279 1.54454795
v 13.85849662 6.13123180 -1.45556168
v 15.19877302 4.82716992 -1.45556168
v 14.54765286 5.41260373 1.54454795
v -8.50515914 6.27375686 -1.45556168
v -7.50340120 6.60079208 -1.45556168
v 10.50025194 6.85022555 -1.45556168
v 11.60008256 7.08134666 -1.45556168
v 11.98634951 7.04919502 -1.45556168
v -12.56156598 2.80491990 -4.45567132
v -13.11594203 -0.03708231 -4.45567132
v -12.77777778 2.13683074 -1.45556168
v -12.43961353 4.31074378 1.54454795
v -12.10144928 6.48465683 4.54465759
v -10.01977196 4.98792083 4.54465759
v -11.87334113 5.06631829 -4.45567132
v -8.08743813 4.10442841 4.54465759
v -11.01991321 6.65883592 -4.45567132
v -7.15506161 3.89860611 4.54465759
v -10.50228477 7.18577208 -4.45567132
v -6.30745607 3.86006934 4.54465759
v -5.44755350 3.98267592 4.54465759
v -9.64090335 7.55742355 -4.45567132
v -9.95766168 7.48248950 -4.45567132
v -4.66925732 4.24458274 4.54465759
v -3.15439386 5.14757283 4.54465759
v -7.89130221 7.08652160 -4.45567132
v -8.64449110 7.43855462 -4.45567132
v -1.74775158 6.21096309 4.54465759
v -5.51495731 5.21544846 -4.45567132
v -7.10741131 6.56091586 -4.45567132
v -0.45931280 6.90922863 4.54465759
v -3.94854361 3.79845724 -4.45567132
v 0.70883121 7.20057225 4.54465759
v -2.36789781 2.52103313 -4.45567132
v 1.79701056 7.19855870 4.54465759
v -0.71505052 1.55391714 -4.45567132
v 2.84513319 6.95703134 4.54465759
v 1.04133089 1.02127305 -4.45567132
v 3.87439635 6.49327132 4.54465759
v 1.98446425 0.95391128 -4.45567132
v 4.89246965 5.80810793 4.54465759
v 3.89656140 1.35829739 -4.45567132
v 2.90619922 1.05063446 -4.45567132
v 5.91232496 4.92787125 4.54465759
v 5.77046646 2.68793095 -4.45567132
v 4.83607767 1.88395774 -4.45567132
v 6.92120697 4.00389592 4.54465759
v 8.22471691 5.90402364 -4.45567132
v 6.63979293 3.68815158 -4.45567132
v 7.89464193 3.27016122 4.54465759
v 9.72557973 7.87645367 -4.45567132
v 8.38689590 3.02307480 4.54465759
v 10.49431233 8.58149314 -4.45567132
v 8.89534236 2.87997624 4.54465759
v 9.43792312 2.85982151 4.54465759
v 11.68005997 9.03763344 -4.45567132
v 11.29003129 8.97993586 -4.45567132
v 10.02559940 2.98239072 4.54465759
v 11.32017743 3.66678955 4.54465759
v 13.66904405 7.89814647 -4.45567132
v 12.92279580 8.59927543 -4.45567132
v 12.64368591 4.75501471 4.54465759
v 15.85003184 4.24143784 -4.45567132
v 14.46610256 6.81947519 -4.45567132
v 13.89673140 5.99824629 4.54465759
v 16.42512077 3.27209644 -1.45556168
v 17.10144928 1.26726552 -4.45567132
v 15.74879227 5.27692736 1.54454795
v 15.07246377 7.28175827 4.54465759
v -10.23327190 7.36135066 -4.45567132
v -9.31629952 7.57215516 -4.45567132
v 10.88784008 8.82424835 -4.45567132
v 12.49485593 8.85611306 -4.45567132
v 12.08113780 8.99929955 -4.45567132
vt 0.33333333 0.03112908
vt 0.66666667 0.03112908
vt 0.33333333 0.06517916
vt 0.66666667 0.06517916
vt 0.33333333 0.10279493
vt 0.66666667 0.08398705
vt 0.33333333 0.12385178
vt 0.66666667 0.12385178
vt 0.66666667 0.10279493
vt 0.33333333 0.14490864
vt 0.33333333 0.15671737
vt 0.66666667 0.19214356
vt 0.66666667 0.16852610
vt 0.66666667 0.14490864
vt 0.33333333 0.19214356
vt 0.33333333 0.21750236
vt 0.66666667 0.24286117
vt 0.66666667 0.21750236
vt 0.33333333 0.24286117
vt 0.33333333 0.29183136
vt 0.66666667 0.29183136
vt 0.33333333 0.33754536
vt 0.66666667 0.33754536
vt 0.33333333 0.38185752
vt 0.66666667 0.38185752
vt 0.33333333 0.42684547
vt 0.66666667 0.42684547
vt 0.33333333 0.47425103
vt 0.66666667 0.47425103
vt 0.33333333 0.50007223
vt 0.66666667 0.52589343
vt 0.33333333 0.52589343
vt 0.33333333 0.55465973
vt 0.66666667 0.58342603
vt 0.66666667 0.55465973
vt 0.33333333 0.58342603
vt 0.33333333 0.61413337
vt 0.66666667 0.64484072
vt 0.66666667 0.61413337
vt 0.33333333 0.64484072
vt 0.33333333 0.70546044
vt 0.66666667 0.70546044
vt 0.33333333 0.76558477
vt 0.66666667 0.73552261
vt 0.33333333 0.79598050
vt 0.66666667 0.79598050
vt 0.66666667 0.76558477
vt 0.33333333 0.82637622
vt 0.33333333 0.84074911
vt 0.66666667 0.88386777
vt 0.66666667 0.85512200
vt 0.66666667 0.82637622
vt 0.33333333 0.88386777
vt 0.33333333 0.90772458
vt 0.66666667 0.93158138
vt 0.66666667 0.90772458
vt 0.33333333 0.93158138
vt 0.33333333 0.96933680
vt 0.66666667 0.96933680
vt 0.33333333 0.13438021
vt 0.33333333 0.16852610
vt 0.33333333 0.81117836
vt 0.33333333 0.85512200
vt 0.33333333 0.86949489
vt 0.00000000 0.03112908
vt 0.00000000 0.00000000
vt 0.33333333 0.00000000
vt 0.66666667 0.00000000
vt 1.00000000 0.00000000
vt 1.00000000 0.03112908
vt 0.00000000 0.06517916
vt 1.00000000 0.06517916
vt 0.00000000 0.10279493
vt 1.00000000 0.08398705
vt 0.00000000 0.12385178
vt 1.00000000 0.10279493
vt 1.00000000 0.12385178
vt 0.00000000 0.15671737
vt 0.00000000 0.14490864
vt 1.00000000 0.14490864
vt 1.00000000 0.19214356
vt 0.00000000 0.21750236
vt 0.00000000 0.19214356
vt 1.00000000 0.24286117
vt 0.00000000 0.29183136
vt 0.00000000 0.24286117
vt 1.00000000 0.29183136
vt 0.00000000 0.33754536
vt 1.00000000 0.33754536
vt 0.00000000 0.38185752
vt 1.00000000 0.38185752
vt 0.00000000 0.42684547
vt 1.00000000 0.42684547
vt 0.00000000 0.47425103
vt 1.00000000 0.47425103
vt 0.00000000 0.50007223
vt 1.00000000 0.52589343
vt 0.00000000 0.55465973
vt 0.00000000 0.52589343
vt 1.00000000 0.58342603
vt 0.00000000 0.61413337
vt 0.00000000 0.58342603
vt 1.00000000 0.64484072
vt 0.00000000 0.70546044
vt 0.00000000 0.64484072
vt 1.00000000 0.70546044
vt 0.00000000 0.76558477
vt 1.00000000 0.73552261
vt 0.00000000 0.79598050
vt 1.00000000 0.76558477
vt 1.00000000 0.79598050
vt 0.00000000 0.84074911
vt 0.00000000 0.82637622
vt 1.00000000 0.82637622
vt 1.00000000 0.88386777
vt 0.00000000 0.90772458
vt 0.00000000 0.88386777
vt 1.00000000 0.93158138
vt 0.00000000 0.96933680
vt 0.00000000 0.93158138
vt 1.00000000 0.96933680
vt 0.33333333 1.00000000
vt 0.00000000 1.00000000
vt 0.66666667 1.00000000
vt 1.00000000 1.00000000
vt 0.00000000 0.13438021
vt 0.00000000 0.16852610
vt 0.00000000 0.81117836
vt 0.00000000 0.86949489
vt 0.00000000 0.85512200
vn -0.77022312 0.63459421 0.06361233
vn -0.03639454 0.97348766 -0.22582563
vn -0.65640089 0.66951448 0.34768986
vn -0.17530530 0.96842267 0.17727264
vn -0.50199619 0.71579418 0.48542611
vn -0.23224193 0.91761429 0.32256426
vn -0.41066872 0.76140367 0.50161304
vn -0.30786118 0.82850824 0.46775590
vn -0.27444174 0.86809153 0.41364094
vn -0.30946635 0.82224594 0.47764232
vn -0.24582288 0.86101138 0.44523086
vn -0.32255689 0.85145962 0.41348949
vn -0.33676520 0.81702702 0.46803424
vn -0.32885310 0.81045262 0.48479088
vn -0.02009888 0.96590319 0.25812219
vn 0.15406937 0.98631365 0.05871973
vn -0.15803033 0.97854970 0.13216236
vn -0.26932225 0.91371716 0.30428025
vn 0.30023124 0.94322011 -0.14211623
vn 0.43869190 0.80568345 -0.39802462
vn 0.11620258 0.96220224 -0.24630024
vn 0.45130630 0.73208599 -0.51026731
vn 0.25026264 0.85568608 -0.45295689
vn 0.40840249 0.71883245 -0.56257205
vn 0.29547218 0.78489202 -0.54464732
vn 0.31848965 0.75183588 -0.57732759
vn 0.29704088 0.76225317 -0.57509723
vn 0.19780651 0.80871408 -0.55394416
vn 0.28734482 0.77561721 -0.56200614
vn 0.11281599 0.84627174 -0.52066947
vn 0.25425041 0.83072887 -0.49522345
vn 0.00596243 0.88352917 -0.46833819
vn -0.14478456 0.91241548 -0.38279945
vn 0.12941514 0.93453004 -0.33151971
vn 0.20861303 0.87950634 -0.42772561
vn -0.32448191 0.90714022 -0.26797035
vn -0.50622993 0.85247061 -0.13048037
vn -0.11329560 0.99306905 -0.03127236
vn 0.00769327 0.98116359 -0.19302545
vn -0.61736479 0.78663374 -0.00825076
vn -0.67656716 0.71305507 0.18387319
vn -0.27354747 0.92578667 0.26094218
vn -0.56958092 0.73979940 0.35815419
vn -0.30374816 0.88007006 0.36498459
vn -0.43485263 0.78217933 0.44620476
vn -0.28633724 0.82343461 0.48986368
vn -0.30705608 0.84381120 0.44011275
vn -0.23294199 0.82405611 0.51640058
vn -0.11716298 0.83678752 0.53484530
vn -0.14316651 0.87842597 0.45592891
vn -0.19986769 0.83977069 0.50481491
vn -0.24781305 0.82191235 0.51288281
vn 0.25578530 0.82784017 0.49925398
vn 0.44190258 0.79489127 0.41577636
vn -0.02892685 0.97553227 0.21794502
vn -0.08941619 0.92528540 0.36858062
vn 0.59425318 0.74930135 0.29225101
vn 0.75093777 0.65948222 0.03428792
vn 0.07160701 0.98177509 -0.17604009
vn -0.36174351 0.79013115 0.49480743
vn -0.17614260 0.90033957 0.39794780
vn -0.34211999 0.80466194 0.48525568
vn 0.00647745 0.84205143 0.53935835
vn 0.13260974 0.83896774 0.52777627
vn -0.94999818 0.22843015 0.21289229
vn -0.98749541 0.15762098 -0.00290612
vn -0.77422882 0.55076178 -0.31181918
vn 0.07939880 0.80292995 -0.59076165
vn 0.54106154 0.65084215 -0.53259450
vn 0.48256450 0.81017847 -0.33277975
vn -0.85463390 0.33645798 0.39547051
vn 0.29172356 0.95628339 -0.02048040
vn -0.67662369 0.52406620 0.51723785
vn 0.12961660 0.97799642 0.16347029
vn -0.51637697 0.67302045 0.52952649
vn -0.04249559 0.94750878 0.31689311
vn -0.21293830 0.87659283 0.43155798
vn -0.12538827 0.91185394 0.39089663
vn -0.28480716 0.83643308 0.46825696
vn -0.34446865 0.80053220 0.49039734
vn -0.51486805 0.70157668 0.49264699
vn 0.49460763 0.85264271 -0.16841527
vn 0.32177445 0.94577206 0.04445695
vn -0.53704470 0.76766633 0.34967328
vn 0.59614763 0.65883294 -0.45885419
vn 0.56989818 0.76108170 -0.30979140
vn -0.35889486 0.93301316 0.02609461
vn 0.55977220 0.63670616 -0.53033984
vn -0.11092735 0.94725558 -0.30066924
vn 0.47896175 0.66843247 -0.56902871
vn 0.10284665 0.86234487 -0.49576596
vn 0.33385288 0.74405131 -0.57873128
vn 0.26507508 0.77682841 -0.57120296
vn 0.12866374 0.82887493 -0.54443731
vn 0.40377973 0.71977185 -0.56470383
vn -0.01277770 0.86662723 -0.49879252
vn 0.53917926 0.68957877 -0.48349442
vn -0.37326512 0.86898261 -0.32487286
vn -0.17617949 0.88579327 -0.42933795
vn 0.64346456 0.69848120 -0.31317308
vn -0.71108463 0.69791375 -0.08529387
vn -0.56157789 0.80187776 -0.20401550
vn 0.65649869 0.75286440 -0.04695384
vn -0.81497610 0.56354388 0.13502684
vn -0.78581698 0.61845222 0.00292073
vn 0.49732489 0.82753380 0.26049139
vn -0.70515903 0.64553520 0.29331733
vn 0.33928259 0.85349453 0.39551790
vn -0.53636509 0.73933719 0.40705407
vn 0.14022121 0.86012609 0.49042953
vn -0.07260040 0.84551714 0.52898955
vn -0.02358628 0.83590750 0.54836333
vn -0.22038659 0.82570785 0.51926516
vn -0.26569075 0.81906300 0.50847244
vn -0.54196872 0.77390699 0.32762461
vn 0.69526607 0.60651127 0.38568014
vn 0.51558348 0.70936909 0.48059252
vn -0.67822885 0.73419318 0.03108045
vn 0.90090409 0.41883478 0.11379477
vn 0.80647301 0.51942236 0.28249194
vn -0.69534550 0.66185931 -0.28006586
vn 0.79442137 0.57231117 -0.20335834
vn 0.93231320 0.36035240 -0.03063076
vn 0.12601341 0.83770284 -0.53138928
vn -0.63814980 0.56590643 -0.52202945
vn -0.41028461 0.75580240 0.51032271
vn 0.04054094 0.95751428 0.28552204
vn -0.39878715 0.78889548 0.46756041
vn 0.36331085 0.76959710 0.52509574
vn 0.17888464 0.81568392 0.55014547
s 1

f 65/65/65 66/66/66 67/67/67
f 67/67/67 68/68/68 1/1/1
f 1/1/1 2/2/2 3/3/3
f 3/3/3 4/4/4 5/5/5
f 7/7/7 5/5/5 9/9/9
f 74/74/74 9/9/9 6/6/6
f 72/72/72 74/74/74 6/6/6
f 74/74/74 76/76/76 9/9/9
f 76/76/76 77/77/77 8/8/8
f 8/8/8 10/10/10 60/60/60
f 79/79/79 126/126/126 60/60/60
f 79/79/79 60/60/60 10/10/10
f 10/10/10 14/14/14 11/11/11
f 127/127/127 11/11/11 61/61/61
f 61/61/61 13/13/13 15/15/15
f 15/15/15 12/12/12 16/16/16
f 16/16/16 18/18/18 19/19/19
f 19/19/19 17/17/17 20/20/20
f 20/20/20 21/21/21 22/22/22
f 22/22/22 23/23/23 24/24/24
f 24/24/24 25/25/25 26/26/26
f 26/26/26 27/27/27 28/28/28
f 30/30/30 28/28/28 29/29/29
f 97/97/97 31/31/31 29/29/29
f 100/100/100 35/35/35 31/31/31
f 35/35/35 34/34/34 36/36/36
f 102/102/102 33/33/33 36/36/36
f 98/98/98 32/32/32 33/33/33
f 98/98/98 99/99/99 32/32/32
f 102/102/102 98/98/98 33/33/33
f 101/101/101 36/36/36 37/37/37
f 37/37/37 39/39/39 40/40/40
f 40/40/40 42/42/42 41/41/41
f 41/41/41 47/47/47 43/43/43
f 43/43/43 46/46/46 45/45/45
f 62/62/62 45/45/45 52/52/52
f 114/114/114 115/115/115 52/52/52
f 115/115/115 118/118/118 50/50/50
f 63/63/63 50/50/50 64/64/64
f 117/117/117 64/64/64 53/53/53
f 53/53/53 56/56/56 54/54/54
f 54/54/54 55/55/55 57/57/57
f 57/57/57 59/59/59 58/58/58
f 124/124/124 122/122/122 58/58/58
f 122/122/122 123/123/123 119/119/119
f 122/122/122 119/119/119 58/58/58
f 119/119/119 120/120/120 58/58/58
f 125/125/125 124/124/124 59/59/59
f 121/121/121 125/125/125 59/59/59
f 124/124/124 58/58/58 59/59/59
f 120/120/120 57/57/57 58/58/58
f 121/121/121 59/59/59 55/55/55
f 57/57/57 55/55/55 59/59/59
f 120/120/120 54/54/54 57/57/57
f 120/120/120 116/116/116 54/54/54
f 54/54/54 56/56/56 55/55/55
f 116/116/116 53/53/53 54/54/54
f 116/116/116 117/117/117 53/53/53
f 117/117/117 129/129/129 64/64/64
f 129/129/129 130/130/130 64/64/64
f 112/112/112 49/49/49 63/63/63
f 49/49/49 48/48/48 51/51/51
f 113/113/113 128/128/128 48/48/48
f 113/113/113 48/48/48 49/49/49
f 112/112/112 113/113/113 49/49/49
f 130/130/130 112/112/112 63/63/63
f 130/130/130 63/63/63 64/64/64
f 51/51/51 63/63/63 49/49/49
f 50/50/50 53/53/53 64/64/64
f 63/63/63 51/51/51 50/50/50
f 53/53/53 50/50/50 56/56/56
f 118/118/118 121/121/121 55/55/55
f 118/118/118 56/56/56 50/50/50
f 118/118/118 55/55/55 56/56/56
f 115/115/115 50/50/50 51/51/51
f 115/115/115 51/51/51 52/52/52
f 48/48/48 52/52/52 51/51/51
f 52/52/52 48/48/48 62/62/62
f 128/128/128 62/62/62 48/48/48
f 128/128/128 109/109/109 62/62/62
f 109/109/109 45/45/45 62/62/62
f 109/109/109 107/107/107 45/45/45
f 114/114/114 52/52/52 46/46/46
f 111/111/111 114/114/114 46/46/46
f 45/45/45 46/46/46 52/52/52
f 107/107/107 43/43/43 45/45/45
f 107/107/107 104/104/104 43/43/43
f 110/110/110 47/47/47 44/44/44
f 108/108/108 110/110/110 44/44/44
f 111/111/111 46/46/46 47/47/47
f 110/110/110 111/111/111 47/47/47
f 43/43/43 47/47/47 46/46/46
f 41/41/41 44/44/44 47/47/47
f 104/104/104 41/41/41 43/43/43
f 104/104/104 105/105/105 41/41/41
f 108/108/108 44/44/44 42/42/42
f 106/106/106 108/108/108 42/42/42
f 41/41/41 42/42/42 44/44/44
f 103/103/103 42/42/42 38/38/38
f 103/103/103 106/106/106 42/42/42
f 40/40/40 38/38/38 42/42/42
f 105/105/105 40/40/40 41/41/41
f 39/39/39 38/38/38 40/40/40
f 103/103/103 38/38/38 39/39/39
f 105/105/105 37/37/37 40/40/40
f 105/105/105 101/101/101 37/37/37
f 101/101/101 102/102/102 36/36/36
f 34/34/34 39/39/39 37/37/37
f 36/36/36 34/34/34 37/37/37
f 33/33/33 35/35/35 36/36/36
f 100/100/100 103/103/103 39/39/39
f 39/39/39 34/34/34 100/100/100
f 100/100/100 34/34/34 35/35/35
f 31/31/31 35/35/35 33/33/33
f 32/32/32 31/31/31 33/33/33
f 97/97/97 100/100/100 31/31/31
f 95/95/95 97/97/97 29/29/29
f 93/93/93 95/95/95 29/29/29
f 99/99/99 30/30/30 32/32/32
f 99/99/99 96/96/96 30/30/30
f 29/29/29 31/31/31 30/30/30
f 31/31/31 32/32/32 30/30/30
f 96/96/96 28/28/28 30/30/30
f 96/96/96 94/94/94 28/28/28
f 93/93/93 29/29/29 27/27/27
f 27/27/27 29/29/29 28/28/28
f 91/91/91 93/93/93 27/27/27
f 94/94/94 26/26/26 28/28/28
f 94/94/94 92/92/92 26/26/26
f 91/91/91 27/27/27 25/25/25
f 25/25/25 27/27/27 26/26/26
f 89/89/89 91/91/91 25/25/25
f 92/92/92 24/24/24 26/26/26
f 92/92/92 90/90/90 24/24/24
f 89/89/89 25/25/25 23/23/23
f 23/23/23 25/25/25 24/24/24
f 87/87/87 89/89/89 23/23/23
f 90/90/90 22/22/22 24/24/24
f 90/90/90 88/88/88 22/22/22
f 87/87/87 23/23/23 21/21/21
f 21/21/21 23/23/23 22/22/22
f 84/84/84 87/87/87 21/21/21
f 88/88/88 20/20/20 22/22/22
f 88/88/88 85/85/85 20/20/20
f 84/84/84 21/21/21 17/17/17
f 17/17/17 21/21/21 20/20/20
f 81/81/81 84/84/84 17/17/17
f 85/85/85 19/19/19 20/20/20
f 85/85/85 86/86/86 19/19/19
f 18/18/18 17/17/17 19/19/19
f 17/17/17 18/18/18 81/81/81
f 86/86/86 16/16/16 19/19/19
f 86/86/86 82/82/82 16/16/16
f 18/18/18 12/12/12 81/81/81
f 12/12/12 18/18/18 16/16/16
f 80/80/80 81/81/81 12/12/12
f 82/82/82 15/15/15 16/16/16
f 82/82/82 83/83/83 15/15/15
f 13/13/13 12/12/12 15/15/15
f 12/12/12 13/13/13 80/80/80
f 83/83/83 61/61/61 15/15/15
f 83/83/83 127/127/127 61/61/61
f 127/127/127 78/78/78 11/11/11
f 13/13/13 14/14/14 80/80/80
f 14/14/14 61/61/61 11/11/11
f 14/14/14 13/13/13 61/61/61
f 78/78/78 10/10/10 11/11/11
f 78/78/78 79/79/79 10/10/10
f 8/8/8 14/14/14 10/10/10
f 77/77/77 14/14/14 8/8/8
f 77/77/77 80/80/80 14/14/14
f 76/76/76 8/8/8 9/9/9
f 126/126/126 7/7/7 60/60/60
f 126/126/126 75/75/75 7/7/7
f 8/8/8 60/60/60 7/7/7
f 7/7/7 9/9/9 8/8/8
f 75/75/75 5/5/5 7/7/7
f 75/75/75 73/73/73 5/5/5
f 6/6/6 9/9/9 5/5/5
f 72/72/72 6/6/6 4/4/4
f 4/4/4 6/6/6 5/5/5
f 70/70/70 72/72/72 4/4/4
f 73/73/73 3/3/3 5/5/5
f 73/73/73 71/71/71 3/3/3
f 70/70/70 4/4/4 2/2/2
f 2/2/2 4/4/4 3/3/3
f 71/71/71 1/1/1 3/3/3
f 68/68/68 70/70/70 2/2/2
f 68/68/68 69/69/69 70/70/70
f 68/68/68 2/2/2 1/1/1
f 71/71/71 65/65/65 1/1/1
f 65/65/65 67/67/67 1/1/1
